<?xml version="1.0" standalone="no"?><svg xmlns:xlink="http://www.w3.org/1999/xlink" xmlns="http://www.w3.org/2000/svg" viewBox="0 0 1000 999.9999999999999" preserveAspectRatio="xMaxYMax slice"><g transform="scale(1.6129032258064515)"><rect x="0" y="0" width="620" height="620" fill="#faf9fb"/><g transform="translate(0,0) scale(3.4445) rotate(0)"><path d="M10 5L5 0L0 5L5 10L0 15L5 20L10 15L15 20L20 15L15 10L20 5L15 0L10 5Z" fill="#d5e4e7"/></g><rect x="68.88888888888889" y="0" width="68.88888888888889" height="68.88888888888889" fill="#faf9fb"/><g transform="translate(68.89,0) scale(1.722) rotate(0)"><path d="M10 5L5 0L0 5L5 10L0 15L5 20L10 15L15 20L20 15L15 10L20 5L15 0L10 5Z" fill="#895c93"/></g><g transform="translate(103.33,0) scale(1.722) rotate(0)"><path d="M10 5L5 0L0 5L5 10L0 15L5 20L10 15L15 20L20 15L15 10L20 5L15 0L10 5Z" fill="#c9dde1"/></g><g transform="translate(68.89,34.44) scale(1.722) rotate(0)"><path d="M10 5L5 0L0 5L5 10L0 15L5 20L10 15L15 20L20 15L15 10L20 5L15 0L10 5Z" fill="#d5e4e7"/></g><g transform="translate(103.33,34.44) scale(1.722) rotate(0)"><path d="M10 5L5 0L0 5L5 10L0 15L5 20L10 15L15 20L20 15L15 10L20 5L15 0L10 5Z" fill="#bfa8c5"/></g><g transform="translate(137.78,0) scale(3.4445) rotate(0)"><path d="M10 5L5 0L0 5L5 10L0 15L5 20L10 15L15 20L20 15L15 10L20 5L15 0L10 5Z" fill="#b8d4d8"/></g><g transform="translate(206.67,0) scale(3.4445) rotate(0)"><path d="M10 5L5 0L0 5L5 10L0 15L5 20L10 15L15 20L20 15L15 10L20 5L15 0L10 5Z" fill="#daccde"/></g><rect x="275.55555555555554" y="0" width="68.88888888888889" height="68.88888888888889" fill="#faf9fb"/><g transform="translate(275.56,0) scale(1.722) rotate(0)"><path d="M10 5L5 0L0 5L5 10L0 15L5 20L10 15L15 20L20 15L15 10L20 5L15 0L10 5Z" fill="#9fc6ca"/></g><g transform="translate(310,0) scale(1.722) rotate(0)"><path d="M10 5L5 0L0 5L5 10L0 15L5 20L10 15L15 20L20 15L15 10L20 5L15 0L10 5Z" fill="#d6c6da"/></g><g transform="translate(275.56,34.44) scale(1.722) rotate(0)"><path d="M10 5L5 0L0 5L5 10L0 15L5 20L10 15L15 20L20 15L15 10L20 5L15 0L10 5Z" fill="#e2ebee"/></g><g transform="translate(310,34.44) scale(1.722) rotate(0)"><path d="M10 5L5 0L0 5L5 10L0 15L5 20L10 15L15 20L20 15L15 10L20 5L15 0L10 5Z" fill="#c4afca"/></g><g transform="translate(344.44,0) scale(3.4445) rotate(0)"><path d="M10 5L5 0L0 5L5 10L0 15L5 20L10 15L15 20L20 15L15 10L20 5L15 0L10 5Z" fill="#c1d9dd"/></g><g transform="translate(413.33,0) scale(3.4445) rotate(0)"><path d="M10 5L5 0L0 5L5 10L0 15L5 20L10 15L15 20L20 15L15 10L20 5L15 0L10 5Z" fill="#f2f4f7"/></g><g transform="translate(482.22,0) scale(3.4445) rotate(0)"><path d="M10 5L5 0L0 5L5 10L0 15L5 20L10 15L15 20L20 15L15 10L20 5L15 0L10 5Z" fill="#80508b"/></g><rect x="551.1111111111111" y="0" width="68.88888888888889" height="68.88888888888889" fill="#faf9fb"/><g transform="translate(551.11,0) scale(1.722) rotate(0)"><path d="M10 5L5 0L0 5L5 10L0 15L5 20L10 15L15 20L20 15L15 10L20 5L15 0L10 5Z" fill="#d6c8da"/></g><g transform="translate(585.56,0) scale(1.722) rotate(0)"><path d="M10 5L5 0L0 5L5 10L0 15L5 20L10 15L15 20L20 15L15 10L20 5L15 0L10 5Z" fill="#bda5c4"/></g><g transform="translate(551.11,34.44) scale(1.722) rotate(0)"><path d="M10 5L5 0L0 5L5 10L0 15L5 20L10 15L15 20L20 15L15 10L20 5L15 0L10 5Z" fill="#9dc5c9"/></g><g transform="translate(585.56,34.44) scale(1.722) rotate(0)"><path d="M10 5L5 0L0 5L5 10L0 15L5 20L10 15L15 20L20 15L15 10L20 5L15 0L10 5Z" fill="#dfd4e2"/></g><g transform="translate(0,68.89) scale(3.4445) rotate(0)"><path d="M10 5L5 0L0 5L5 10L0 15L5 20L10 15L15 20L20 15L15 10L20 5L15 0L10 5Z" fill="#bad5d9"/></g><rect x="68.88888888888889" y="68.88888888888889" width="68.88888888888889" height="68.88888888888889" fill="#faf9fb"/><g transform="translate(68.89,68.89) scale(1.722) rotate(0)"><path d="M10 5L5 0L0 5L5 10L0 15L5 20L10 15L15 20L20 15L15 10L20 5L15 0L10 5Z" fill="#faf9fb"/></g><g transform="translate(103.33,68.89) scale(1.722) rotate(0)"><path d="M10 5L5 0L0 5L5 10L0 15L5 20L10 15L15 20L20 15L15 10L20 5L15 0L10 5Z" fill="#d6e4e8"/></g><g transform="translate(68.89,103.33) scale(1.722) rotate(0)"><path d="M10 5L5 0L0 5L5 10L0 15L5 20L10 15L15 20L20 15L15 10L20 5L15 0L10 5Z" fill="#dfeaed"/></g><g transform="translate(103.33,103.33) scale(1.722) rotate(0)"><path d="M10 5L5 0L0 5L5 10L0 15L5 20L10 15L15 20L20 15L15 10L20 5L15 0L10 5Z" fill="#9dc5c9"/></g><rect x="137.77777777777777" y="68.88888888888889" width="68.88888888888889" height="68.88888888888889" fill="#faf9fb"/><g transform="translate(137.78,68.89) scale(1.722) rotate(0)"><path d="M10 5L5 0L0 5L5 10L0 15L5 20L10 15L15 20L20 15L15 10L20 5L15 0L10 5Z" fill="#9ec5ca"/></g><g transform="translate(172.22,68.89) scale(1.722) rotate(0)"><path d="M10 5L5 0L0 5L5 10L0 15L5 20L10 15L15 20L20 15L15 10L20 5L15 0L10 5Z" fill="#bdd6da"/></g><g transform="translate(137.78,103.33) scale(1.722) rotate(0)"><path d="M10 5L5 0L0 5L5 10L0 15L5 20L10 15L15 20L20 15L15 10L20 5L15 0L10 5Z" fill="#efeaf1"/></g><g transform="translate(172.22,103.33) scale(1.722) rotate(0)"><path d="M10 5L5 0L0 5L5 10L0 15L5 20L10 15L15 20L20 15L15 10L20 5L15 0L10 5Z" fill="#aaccd0"/></g><g transform="translate(206.67,68.89) scale(3.4445) rotate(0)"><path d="M10 5L5 0L0 5L5 10L0 15L5 20L10 15L15 20L20 15L15 10L20 5L15 0L10 5Z" fill="#c4aec9"/></g><g transform="translate(275.56,68.89) scale(3.4445) rotate(0)"><path d="M10 5L5 0L0 5L5 10L0 15L5 20L10 15L15 20L20 15L15 10L20 5L15 0L10 5Z" fill="#94bfc4"/></g><g transform="translate(344.44,68.89) scale(3.4445) rotate(0)"><path d="M10 5L5 0L0 5L5 10L0 15L5 20L10 15L15 20L20 15L15 10L20 5L15 0L10 5Z" fill="#c1d9dc"/></g><g transform="translate(413.33,68.89) scale(3.4445) rotate(0)"><path d="M10 5L5 0L0 5L5 10L0 15L5 20L10 15L15 20L20 15L15 10L20 5L15 0L10 5Z" fill="#7d4c88"/></g><g transform="translate(482.22,68.89) scale(3.4445) rotate(0)"><path d="M10 5L5 0L0 5L5 10L0 15L5 20L10 15L15 20L20 15L15 10L20 5L15 0L10 5Z" fill="#d4c4d8"/></g><rect x="551.1111111111111" y="68.88888888888889" width="68.88888888888889" height="68.88888888888889" fill="#faf9fb"/><g transform="translate(551.11,68.89) scale(1.722) rotate(0)"><path d="M10 5L5 0L0 5L5 10L0 15L5 20L10 15L15 20L20 15L15 10L20 5L15 0L10 5Z" fill="#eaf0f2"/></g><g transform="translate(585.56,68.89) scale(1.722) rotate(0)"><path d="M10 5L5 0L0 5L5 10L0 15L5 20L10 15L15 20L20 15L15 10L20 5L15 0L10 5Z" fill="#a7cace"/></g><g transform="translate(551.11,103.33) scale(1.722) rotate(0)"><path d="M10 5L5 0L0 5L5 10L0 15L5 20L10 15L15 20L20 15L15 10L20 5L15 0L10 5Z" fill="#a7cace"/></g><g transform="translate(585.56,103.33) scale(1.722) rotate(0)"><path d="M10 5L5 0L0 5L5 10L0 15L5 20L10 15L15 20L20 15L15 10L20 5L15 0L10 5Z" fill="#a887b0"/></g><g transform="translate(0,137.78) scale(3.4445) rotate(0)"><path d="M10 5L5 0L0 5L5 10L0 15L5 20L10 15L15 20L20 15L15 10L20 5L15 0L10 5Z" fill="#f6f4f7"/></g><g transform="translate(68.89,137.78) scale(3.4445) rotate(0)"><path d="M10 5L5 0L0 5L5 10L0 15L5 20L10 15L15 20L20 15L15 10L20 5L15 0L10 5Z" fill="#c0d8dc"/></g><rect x="137.77777777777777" y="137.77777777777777" width="68.88888888888889" height="68.88888888888889" fill="#faf9fb"/><g transform="translate(137.78,137.78) scale(1.722) rotate(0)"><path d="M10 5L5 0L0 5L5 10L0 15L5 20L10 15L15 20L20 15L15 10L20 5L15 0L10 5Z" fill="#d1e2e5"/></g><g transform="translate(172.22,137.78) scale(1.722) rotate(0)"><path d="M10 5L5 0L0 5L5 10L0 15L5 20L10 15L15 20L20 15L15 10L20 5L15 0L10 5Z" fill="#ecf1f3"/></g><g transform="translate(137.78,172.22) scale(1.722) rotate(0)"><path d="M10 5L5 0L0 5L5 10L0 15L5 20L10 15L15 20L20 15L15 10L20 5L15 0L10 5Z" fill="#b9d4d8"/></g><g transform="translate(172.22,172.22) scale(1.722) rotate(0)"><path d="M10 5L5 0L0 5L5 10L0 15L5 20L10 15L15 20L20 15L15 10L20 5L15 0L10 5Z" fill="#90669a"/></g><g transform="translate(206.67,137.78) scale(3.4445) rotate(0)"><path d="M10 5L5 0L0 5L5 10L0 15L5 20L10 15L15 20L20 15L15 10L20 5L15 0L10 5Z" fill="#c0d8dc"/></g><rect x="275.55555555555554" y="137.77777777777777" width="68.88888888888889" height="68.88888888888889" fill="#faf9fb"/><g transform="translate(275.56,137.78) scale(1.722) rotate(0)"><path d="M10 5L5 0L0 5L5 10L0 15L5 20L10 15L15 20L20 15L15 10L20 5L15 0L10 5Z" fill="#80508b"/></g><g transform="translate(310,137.78) scale(1.722) rotate(0)"><path d="M10 5L5 0L0 5L5 10L0 15L5 20L10 15L15 20L20 15L15 10L20 5L15 0L10 5Z" fill="#9cc4c8"/></g><g transform="translate(275.56,172.22) scale(1.722) rotate(0)"><path d="M10 5L5 0L0 5L5 10L0 15L5 20L10 15L15 20L20 15L15 10L20 5L15 0L10 5Z" fill="#e2ebee"/></g><g transform="translate(310,172.22) scale(1.722) rotate(0)"><path d="M10 5L5 0L0 5L5 10L0 15L5 20L10 15L15 20L20 15L15 10L20 5L15 0L10 5Z" fill="#f1f4f6"/></g><g transform="translate(344.44,137.78) scale(3.4445) rotate(0)"><path d="M10 5L5 0L0 5L5 10L0 15L5 20L10 15L15 20L20 15L15 10L20 5L15 0L10 5Z" fill="#d3e3e6"/></g><g transform="translate(413.33,137.78) scale(3.4445) rotate(0)"><path d="M10 5L5 0L0 5L5 10L0 15L5 20L10 15L15 20L20 15L15 10L20 5L15 0L10 5Z" fill="#c0a9c6"/></g><g transform="translate(482.22,137.78) scale(3.4445) rotate(0)"><path d="M10 5L5 0L0 5L5 10L0 15L5 20L10 15L15 20L20 15L15 10L20 5L15 0L10 5Z" fill="#cbb7d0"/></g><g transform="translate(551.11,137.78) scale(3.4445) rotate(0)"><path d="M10 5L5 0L0 5L5 10L0 15L5 20L10 15L15 20L20 15L15 10L20 5L15 0L10 5Z" fill="#a583ad"/></g><g transform="translate(0,206.67) scale(3.4445) rotate(0)"><path d="M10 5L5 0L0 5L5 10L0 15L5 20L10 15L15 20L20 15L15 10L20 5L15 0L10 5Z" fill="#f7f7fa"/></g><g transform="translate(68.89,206.67) scale(3.4445) rotate(0)"><path d="M10 5L5 0L0 5L5 10L0 15L5 20L10 15L15 20L20 15L15 10L20 5L15 0L10 5Z" fill="#e9e2ec"/></g><g transform="translate(137.78,206.67) scale(3.4445) rotate(0)"><path d="M10 5L5 0L0 5L5 10L0 15L5 20L10 15L15 20L20 15L15 10L20 5L15 0L10 5Z" fill="#b0cfd3"/></g><rect x="206.66666666666666" y="206.66666666666666" width="68.88888888888889" height="68.88888888888889" fill="#faf9fb"/><g transform="translate(206.67,206.67) scale(1.722) rotate(0)"><path d="M10 5L5 0L0 5L5 10L0 15L5 20L10 15L15 20L20 15L15 10L20 5L15 0L10 5Z" fill="#d8cadc"/></g><g transform="translate(241.11,206.67) scale(1.722) rotate(0)"><path d="M10 5L5 0L0 5L5 10L0 15L5 20L10 15L15 20L20 15L15 10L20 5L15 0L10 5Z" fill="#a17eaa"/></g><g transform="translate(206.67,241.11) scale(1.722) rotate(0)"><path d="M10 5L5 0L0 5L5 10L0 15L5 20L10 15L15 20L20 15L15 10L20 5L15 0L10 5Z" fill="#c0a9c6"/></g><g transform="translate(241.11,241.11) scale(1.722) rotate(0)"><path d="M10 5L5 0L0 5L5 10L0 15L5 20L10 15L15 20L20 15L15 10L20 5L15 0L10 5Z" fill="#abccd0"/></g><g transform="translate(275.56,206.67) scale(3.4445) rotate(0)"><path d="M10 5L5 0L0 5L5 10L0 15L5 20L10 15L15 20L20 15L15 10L20 5L15 0L10 5Z" fill="#b5d2d6"/></g><g transform="translate(344.44,206.67) scale(3.4445) rotate(0)"><path d="M10 5L5 0L0 5L5 10L0 15L5 20L10 15L15 20L20 15L15 10L20 5L15 0L10 5Z" fill="#abccd1"/></g><rect x="413.3333333333333" y="206.66666666666666" width="68.88888888888889" height="68.88888888888889" fill="#faf9fb"/><g transform="translate(413.33,206.67) scale(1.722) rotate(0)"><path d="M10 5L5 0L0 5L5 10L0 15L5 20L10 15L15 20L20 15L15 10L20 5L15 0L10 5Z" fill="#dbcfdf"/></g><g transform="translate(447.78,206.67) scale(1.722) rotate(0)"><path d="M10 5L5 0L0 5L5 10L0 15L5 20L10 15L15 20L20 15L15 10L20 5L15 0L10 5Z" fill="#e0d5e3"/></g><g transform="translate(413.33,241.11) scale(1.722) rotate(0)"><path d="M10 5L5 0L0 5L5 10L0 15L5 20L10 15L15 20L20 15L15 10L20 5L15 0L10 5Z" fill="#f4f5f8"/></g><g transform="translate(447.78,241.11) scale(1.722) rotate(0)"><path d="M10 5L5 0L0 5L5 10L0 15L5 20L10 15L15 20L20 15L15 10L20 5L15 0L10 5Z" fill="#b89ebf"/></g><g transform="translate(482.22,206.67) scale(3.4445) rotate(0)"><path d="M10 5L5 0L0 5L5 10L0 15L5 20L10 15L15 20L20 15L15 10L20 5L15 0L10 5Z" fill="#83548e"/></g><g transform="translate(551.11,206.67) scale(3.4445) rotate(0)"><path d="M10 5L5 0L0 5L5 10L0 15L5 20L10 15L15 20L20 15L15 10L20 5L15 0L10 5Z" fill="#a684ae"/></g><rect x="0" y="275.55555555555554" width="68.88888888888889" height="68.88888888888889" fill="#faf9fb"/><g transform="translate(0,275.56) scale(1.722) rotate(0)"><path d="M10 5L5 0L0 5L5 10L0 15L5 20L10 15L15 20L20 15L15 10L20 5L15 0L10 5Z" fill="#7d4c88"/></g><g transform="translate(34.44,275.56) scale(1.722) rotate(0)"><path d="M10 5L5 0L0 5L5 10L0 15L5 20L10 15L15 20L20 15L15 10L20 5L15 0L10 5Z" fill="#bea6c4"/></g><g transform="translate(0,310) scale(1.722) rotate(0)"><path d="M10 5L5 0L0 5L5 10L0 15L5 20L10 15L15 20L20 15L15 10L20 5L15 0L10 5Z" fill="#dcd0e0"/></g><g transform="translate(34.44,310) scale(1.722) rotate(0)"><path d="M10 5L5 0L0 5L5 10L0 15L5 20L10 15L15 20L20 15L15 10L20 5L15 0L10 5Z" fill="#98c1c6"/></g><rect x="68.88888888888889" y="275.55555555555554" width="68.88888888888889" height="68.88888888888889" fill="#faf9fb"/><g transform="translate(68.89,275.56) scale(1.722) rotate(0)"><path d="M10 5L5 0L0 5L5 10L0 15L5 20L10 15L15 20L20 15L15 10L20 5L15 0L10 5Z" fill="#7c4b88"/></g><g transform="translate(103.33,275.56) scale(1.722) rotate(0)"><path d="M10 5L5 0L0 5L5 10L0 15L5 20L10 15L15 20L20 15L15 10L20 5L15 0L10 5Z" fill="#c2d9dd"/></g><g transform="translate(68.89,310) scale(1.722) rotate(0)"><path d="M10 5L5 0L0 5L5 10L0 15L5 20L10 15L15 20L20 15L15 10L20 5L15 0L10 5Z" fill="#accdd1"/></g><g transform="translate(103.33,310) scale(1.722) rotate(0)"><path d="M10 5L5 0L0 5L5 10L0 15L5 20L10 15L15 20L20 15L15 10L20 5L15 0L10 5Z" fill="#e0eaed"/></g><rect x="137.77777777777777" y="275.55555555555554" width="68.88888888888889" height="68.88888888888889" fill="#faf9fb"/><g transform="translate(137.78,275.56) scale(1.722) rotate(0)"><path d="M10 5L5 0L0 5L5 10L0 15L5 20L10 15L15 20L20 15L15 10L20 5L15 0L10 5Z" fill="#865891"/></g><g transform="translate(172.22,275.56) scale(1.722) rotate(0)"><path d="M10 5L5 0L0 5L5 10L0 15L5 20L10 15L15 20L20 15L15 10L20 5L15 0L10 5Z" fill="#a0c6cb"/></g><g transform="translate(137.78,310) scale(1.722) rotate(0)"><path d="M10 5L5 0L0 5L5 10L0 15L5 20L10 15L15 20L20 15L15 10L20 5L15 0L10 5Z" fill="#eaf0f2"/></g><g transform="translate(172.22,310) scale(1.722) rotate(0)"><path d="M10 5L5 0L0 5L5 10L0 15L5 20L10 15L15 20L20 15L15 10L20 5L15 0L10 5Z" fill="#b093b8"/></g><g transform="translate(206.67,275.56) scale(3.4445) rotate(0)"><path d="M10 5L5 0L0 5L5 10L0 15L5 20L10 15L15 20L20 15L15 10L20 5L15 0L10 5Z" fill="#9e7aa7"/></g><g transform="translate(275.56,275.56) scale(3.4445) rotate(0)"><path d="M10 5L5 0L0 5L5 10L0 15L5 20L10 15L15 20L20 15L15 10L20 5L15 0L10 5Z" fill="#a1c7cb"/></g><g transform="translate(344.44,275.56) scale(3.4445) rotate(0)"><path d="M10 5L5 0L0 5L5 10L0 15L5 20L10 15L15 20L20 15L15 10L20 5L15 0L10 5Z" fill="#d7e5e8"/></g><g transform="translate(413.33,275.56) scale(3.4445) rotate(0)"><path d="M10 5L5 0L0 5L5 10L0 15L5 20L10 15L15 20L20 15L15 10L20 5L15 0L10 5Z" fill="#92bec3"/></g><g transform="translate(482.22,275.56) scale(3.4445) rotate(0)"><path d="M10 5L5 0L0 5L5 10L0 15L5 20L10 15L15 20L20 15L15 10L20 5L15 0L10 5Z" fill="#92699c"/></g><g transform="translate(551.11,275.56) scale(3.4445) rotate(0)"><path d="M10 5L5 0L0 5L5 10L0 15L5 20L10 15L15 20L20 15L15 10L20 5L15 0L10 5Z" fill="#e1d6e4"/></g><g transform="translate(0,344.44) scale(3.4445) rotate(0)"><path d="M10 5L5 0L0 5L5 10L0 15L5 20L10 15L15 20L20 15L15 10L20 5L15 0L10 5Z" fill="#f8f8fa"/></g><g transform="translate(68.89,344.44) scale(3.4445) rotate(0)"><path d="M10 5L5 0L0 5L5 10L0 15L5 20L10 15L15 20L20 15L15 10L20 5L15 0L10 5Z" fill="#a07ca9"/></g><g transform="translate(137.78,344.44) scale(3.4445) rotate(0)"><path d="M10 5L5 0L0 5L5 10L0 15L5 20L10 15L15 20L20 15L15 10L20 5L15 0L10 5Z" fill="#c5afca"/></g><rect x="206.66666666666666" y="344.44444444444446" width="68.88888888888889" height="68.88888888888889" fill="#faf9fb"/><g transform="translate(206.67,344.44) scale(1.722) rotate(0)"><path d="M10 5L5 0L0 5L5 10L0 15L5 20L10 15L15 20L20 15L15 10L20 5L15 0L10 5Z" fill="#7d4c89"/></g><g transform="translate(241.11,344.44) scale(1.722) rotate(0)"><path d="M10 5L5 0L0 5L5 10L0 15L5 20L10 15L15 20L20 15L15 10L20 5L15 0L10 5Z" fill="#90669a"/></g><g transform="translate(206.67,378.89) scale(1.722) rotate(0)"><path d="M10 5L5 0L0 5L5 10L0 15L5 20L10 15L15 20L20 15L15 10L20 5L15 0L10 5Z" fill="#e0d5e3"/></g><g transform="translate(241.11,378.89) scale(1.722) rotate(0)"><path d="M10 5L5 0L0 5L5 10L0 15L5 20L10 15L15 20L20 15L15 10L20 5L15 0L10 5Z" fill="#c8dde0"/></g><g transform="translate(275.56,344.44) scale(3.4445) rotate(0)"><path d="M10 5L5 0L0 5L5 10L0 15L5 20L10 15L15 20L20 15L15 10L20 5L15 0L10 5Z" fill="#b1d0d4"/></g><g transform="translate(344.44,344.44) scale(3.4445) rotate(0)"><path d="M10 5L5 0L0 5L5 10L0 15L5 20L10 15L15 20L20 15L15 10L20 5L15 0L10 5Z" fill="#dee9ec"/></g><g transform="translate(413.33,344.44) scale(3.4445) rotate(0)"><path d="M10 5L5 0L0 5L5 10L0 15L5 20L10 15L15 20L20 15L15 10L20 5L15 0L10 5Z" fill="#794685"/></g><rect x="482.2222222222222" y="344.44444444444446" width="68.88888888888889" height="68.88888888888889" fill="#faf9fb"/><g transform="translate(482.22,344.44) scale(1.722) rotate(0)"><path d="M10 5L5 0L0 5L5 10L0 15L5 20L10 15L15 20L20 15L15 10L20 5L15 0L10 5Z" fill="#c4dade"/></g><g transform="translate(516.67,344.44) scale(1.722) rotate(0)"><path d="M10 5L5 0L0 5L5 10L0 15L5 20L10 15L15 20L20 15L15 10L20 5L15 0L10 5Z" fill="#94c0c4"/></g><g transform="translate(482.22,378.89) scale(1.722) rotate(0)"><path d="M10 5L5 0L0 5L5 10L0 15L5 20L10 15L15 20L20 15L15 10L20 5L15 0L10 5Z" fill="#99c2c7"/></g><g transform="translate(516.67,378.89) scale(1.722) rotate(0)"><path d="M10 5L5 0L0 5L5 10L0 15L5 20L10 15L15 20L20 15L15 10L20 5L15 0L10 5Z" fill="#e7eef1"/></g><rect x="551.1111111111111" y="344.44444444444446" width="68.88888888888889" height="68.88888888888889" fill="#faf9fb"/><g transform="translate(551.11,344.44) scale(1.722) rotate(0)"><path d="M10 5L5 0L0 5L5 10L0 15L5 20L10 15L15 20L20 15L15 10L20 5L15 0L10 5Z" fill="#b497ba"/></g><g transform="translate(585.56,344.44) scale(1.722) rotate(0)"><path d="M10 5L5 0L0 5L5 10L0 15L5 20L10 15L15 20L20 15L15 10L20 5L15 0L10 5Z" fill="#e9e1eb"/></g><g transform="translate(551.11,378.89) scale(1.722) rotate(0)"><path d="M10 5L5 0L0 5L5 10L0 15L5 20L10 15L15 20L20 15L15 10L20 5L15 0L10 5Z" fill="#dbe7ea"/></g><g transform="translate(585.56,378.89) scale(1.722) rotate(0)"><path d="M10 5L5 0L0 5L5 10L0 15L5 20L10 15L15 20L20 15L15 10L20 5L15 0L10 5Z" fill="#9f7ba8"/></g><g transform="translate(0,413.33) scale(3.4445) rotate(0)"><path d="M10 5L5 0L0 5L5 10L0 15L5 20L10 15L15 20L20 15L15 10L20 5L15 0L10 5Z" fill="#9871a1"/></g><g transform="translate(68.89,413.33) scale(3.4445) rotate(0)"><path d="M10 5L5 0L0 5L5 10L0 15L5 20L10 15L15 20L20 15L15 10L20 5L15 0L10 5Z" fill="#ad8fb5"/></g><g transform="translate(137.78,413.33) scale(3.4445) rotate(0)"><path d="M10 5L5 0L0 5L5 10L0 15L5 20L10 15L15 20L20 15L15 10L20 5L15 0L10 5Z" fill="#7b4a87"/></g><g transform="translate(206.67,413.33) scale(3.4445) rotate(0)"><path d="M10 5L5 0L0 5L5 10L0 15L5 20L10 15L15 20L20 15L15 10L20 5L15 0L10 5Z" fill="#ae8fb5"/></g><g transform="translate(275.56,413.33) scale(3.4445) rotate(0)"><path d="M10 5L5 0L0 5L5 10L0 15L5 20L10 15L15 20L20 15L15 10L20 5L15 0L10 5Z" fill="#c9b6cf"/></g><g transform="translate(344.44,413.33) scale(3.4445) rotate(0)"><path d="M10 5L5 0L0 5L5 10L0 15L5 20L10 15L15 20L20 15L15 10L20 5L15 0L10 5Z" fill="#7b4987"/></g><g transform="translate(413.33,413.33) scale(3.4445) rotate(0)"><path d="M10 5L5 0L0 5L5 10L0 15L5 20L10 15L15 20L20 15L15 10L20 5L15 0L10 5Z" fill="#e9e2ec"/></g><g transform="translate(482.22,413.33) scale(3.4445) rotate(0)"><path d="M10 5L5 0L0 5L5 10L0 15L5 20L10 15L15 20L20 15L15 10L20 5L15 0L10 5Z" fill="#91bdc2"/></g><g transform="translate(551.11,413.33) scale(3.4445) rotate(0)"><path d="M10 5L5 0L0 5L5 10L0 15L5 20L10 15L15 20L20 15L15 10L20 5L15 0L10 5Z" fill="#dfd4e2"/></g><g transform="translate(0,482.22) scale(3.4445) rotate(0)"><path d="M10 5L5 0L0 5L5 10L0 15L5 20L10 15L15 20L20 15L15 10L20 5L15 0L10 5Z" fill="#8d6297"/></g><rect x="68.88888888888889" y="482.2222222222222" width="68.88888888888889" height="68.88888888888889" fill="#faf9fb"/><g transform="translate(68.89,482.22) scale(1.722) rotate(0)"><path d="M10 5L5 0L0 5L5 10L0 15L5 20L10 15L15 20L20 15L15 10L20 5L15 0L10 5Z" fill="#a2c7cc"/></g><g transform="translate(103.33,482.22) scale(1.722) rotate(0)"><path d="M10 5L5 0L0 5L5 10L0 15L5 20L10 15L15 20L20 15L15 10L20 5L15 0L10 5Z" fill="#b193b8"/></g><g transform="translate(68.89,516.67) scale(1.722) rotate(0)"><path d="M10 5L5 0L0 5L5 10L0 15L5 20L10 15L15 20L20 15L15 10L20 5L15 0L10 5Z" fill="#f4f5f8"/></g><g transform="translate(103.33,516.67) scale(1.722) rotate(0)"><path d="M10 5L5 0L0 5L5 10L0 15L5 20L10 15L15 20L20 15L15 10L20 5L15 0L10 5Z" fill="#a1c7cb"/></g><g transform="translate(137.78,482.22) scale(3.4445) rotate(0)"><path d="M10 5L5 0L0 5L5 10L0 15L5 20L10 15L15 20L20 15L15 10L20 5L15 0L10 5Z" fill="#b9d4d8"/></g><g transform="translate(206.67,482.22) scale(3.4445) rotate(0)"><path d="M10 5L5 0L0 5L5 10L0 15L5 20L10 15L15 20L20 15L15 10L20 5L15 0L10 5Z" fill="#cdbbd2"/></g><g transform="translate(275.56,482.22) scale(3.4445) rotate(0)"><path d="M10 5L5 0L0 5L5 10L0 15L5 20L10 15L15 20L20 15L15 10L20 5L15 0L10 5Z" fill="#baa0c0"/></g><g transform="translate(344.44,482.22) scale(3.4445) rotate(0)"><path d="M10 5L5 0L0 5L5 10L0 15L5 20L10 15L15 20L20 15L15 10L20 5L15 0L10 5Z" fill="#dbcede"/></g><rect x="413.3333333333333" y="482.2222222222222" width="68.88888888888889" height="68.88888888888889" fill="#faf9fb"/><g transform="translate(413.33,482.22) scale(1.722) rotate(0)"><path d="M10 5L5 0L0 5L5 10L0 15L5 20L10 15L15 20L20 15L15 10L20 5L15 0L10 5Z" fill="#e9e1eb"/></g><g transform="translate(447.78,482.22) scale(1.722) rotate(0)"><path d="M10 5L5 0L0 5L5 10L0 15L5 20L10 15L15 20L20 15L15 10L20 5L15 0L10 5Z" fill="#e3d9e6"/></g><g transform="translate(413.33,516.67) scale(1.722) rotate(0)"><path d="M10 5L5 0L0 5L5 10L0 15L5 20L10 15L15 20L20 15L15 10L20 5L15 0L10 5Z" fill="#98c2c6"/></g><g transform="translate(447.78,516.67) scale(1.722) rotate(0)"><path d="M10 5L5 0L0 5L5 10L0 15L5 20L10 15L15 20L20 15L15 10L20 5L15 0L10 5Z" fill="#aeced2"/></g><g transform="translate(482.22,482.22) scale(3.4445) rotate(0)"><path d="M10 5L5 0L0 5L5 10L0 15L5 20L10 15L15 20L20 15L15 10L20 5L15 0L10 5Z" fill="#f9f9fb"/></g><g transform="translate(551.11,482.22) scale(3.4445) rotate(0)"><path d="M10 5L5 0L0 5L5 10L0 15L5 20L10 15L15 20L20 15L15 10L20 5L15 0L10 5Z" fill="#9d78a6"/></g><g transform="translate(0,551.11) scale(3.4445) rotate(0)"><path d="M10 5L5 0L0 5L5 10L0 15L5 20L10 15L15 20L20 15L15 10L20 5L15 0L10 5Z" fill="#b093b7"/></g><g transform="translate(68.89,551.11) scale(3.4445) rotate(0)"><path d="M10 5L5 0L0 5L5 10L0 15L5 20L10 15L15 20L20 15L15 10L20 5L15 0L10 5Z" fill="#9871a1"/></g><g transform="translate(137.78,551.11) scale(3.4445) rotate(0)"><path d="M10 5L5 0L0 5L5 10L0 15L5 20L10 15L15 20L20 15L15 10L20 5L15 0L10 5Z" fill="#9cc4c8"/></g><g transform="translate(206.67,551.11) scale(3.4445) rotate(0)"><path d="M10 5L5 0L0 5L5 10L0 15L5 20L10 15L15 20L20 15L15 10L20 5L15 0L10 5Z" fill="#a17eaa"/></g><rect x="275.55555555555554" y="551.1111111111111" width="68.88888888888889" height="68.88888888888889" fill="#faf9fb"/><g transform="translate(275.56,551.11) scale(1.722) rotate(0)"><path d="M10 5L5 0L0 5L5 10L0 15L5 20L10 15L15 20L20 15L15 10L20 5L15 0L10 5Z" fill="#dacdde"/></g><g transform="translate(310,551.11) scale(1.722) rotate(0)"><path d="M10 5L5 0L0 5L5 10L0 15L5 20L10 15L15 20L20 15L15 10L20 5L15 0L10 5Z" fill="#b5d2d6"/></g><g transform="translate(275.56,585.56) scale(1.722) rotate(0)"><path d="M10 5L5 0L0 5L5 10L0 15L5 20L10 15L15 20L20 15L15 10L20 5L15 0L10 5Z" fill="#c9dde1"/></g><g transform="translate(310,585.56) scale(1.722) rotate(0)"><path d="M10 5L5 0L0 5L5 10L0 15L5 20L10 15L15 20L20 15L15 10L20 5L15 0L10 5Z" fill="#dbe8ea"/></g><g transform="translate(344.44,551.11) scale(3.4445) rotate(0)"><path d="M10 5L5 0L0 5L5 10L0 15L5 20L10 15L15 20L20 15L15 10L20 5L15 0L10 5Z" fill="#adcdd1"/></g><g transform="translate(413.33,551.11) scale(3.4445) rotate(0)"><path d="M10 5L5 0L0 5L5 10L0 15L5 20L10 15L15 20L20 15L15 10L20 5L15 0L10 5Z" fill="#8f6599"/></g><g transform="translate(482.22,551.11) scale(3.4445) rotate(0)"><path d="M10 5L5 0L0 5L5 10L0 15L5 20L10 15L15 20L20 15L15 10L20 5L15 0L10 5Z" fill="#c0a9c6"/></g><g transform="translate(551.11,551.11) scale(3.4445) rotate(0)"><path d="M10 5L5 0L0 5L5 10L0 15L5 20L10 15L15 20L20 15L15 10L20 5L15 0L10 5Z" fill="#a8cbcf"/></g></g></svg>